<svg version="1.1" id="Layer_1" xmlns="http://www.w3.org/2000/svg" xmlns:xlink="http://www.w3.org/1999/xlink" x="0px" y="0px"
	 width="100%" viewBox="0 0 448 464" enable-background="new 0 0 448 464" xml:space="preserve">
<path fill="#000000" opacity="1.000000" stroke="none" 
	d="
M285.468658,465.000000 
	C285.193573,457.839508 290.353302,454.656219 297.250763,457.418457 
	C298.012695,457.723602 299.018677,458.280487 299.608063,458.023834 
	C306.490082,455.026917 313.782104,459.594818 320.840698,456.691010 
	C322.913025,455.838501 326.103729,457.732391 328.952789,457.803650 
	C332.851562,457.901154 336.636688,458.266876 339.506104,454.024414 
	C340.945740,457.184052 345.409668,457.174408 344.174744,461.983521 
	C349.920593,456.204498 356.831696,457.897461 363.253479,457.342102 
	C368.568604,456.882385 372.990570,457.862274 373.844604,464.669434 
	C344.645782,465.000000 315.291534,465.000000 285.468658,465.000000 
z"/>
<path fill="#000000" opacity="1.000000" stroke="none" 
	d="
M388.468628,465.000000 
	C388.322968,464.064514 388.989502,463.095337 388.901672,462.200165 
	C388.678131,459.921539 387.500977,457.388855 390.309998,456.014160 
	C393.277374,454.561981 394.745483,457.299469 396.515320,458.796875 
	C398.656921,458.662842 398.916504,455.857300 401.056885,455.879059 
	C402.983856,455.816498 401.783966,458.285614 403.567657,458.737701 
	C404.170776,455.614807 406.358582,455.458038 409.129517,455.551514 
	C416.584442,455.803070 424.051666,455.672882 431.513580,455.740753 
	C439.539398,455.813782 439.539185,455.836884 439.096069,464.550049 
	C422.312439,465.000000 405.624878,465.000000 388.468628,465.000000 
z"/>
<path fill="#000000" opacity="1.000000" stroke="none" 
	d="
M296.232330,22.968204 
	C318.858765,19.644533 341.026276,16.180397 363.267517,13.281683 
	C383.181458,10.686285 402.890930,5.948105 423.156128,6.699070 
	C439.536865,7.306089 441.026154,8.972003 439.178345,24.967674 
	C437.024811,43.609909 435.519745,62.333763 432.390869,80.858131 
	C432.363251,81.021622 432.384888,81.193893 432.353241,81.356163 
	C429.767029,94.625229 432.969757,92.058464 419.631775,95.062897 
	C415.374359,96.021889 411.443726,96.461029 411.523987,102.228897 
	C411.558594,104.719055 409.344727,105.050224 407.251801,105.501709 
	C398.651947,107.356865 398.387573,107.401619 397.590912,115.820648 
	C396.290283,129.565460 395.415588,143.350296 394.325226,157.115387 
	C392.828064,176.016495 391.355286,194.919830 389.763428,213.813065 
	C388.367462,230.380920 386.825592,246.936539 385.339325,263.496765 
	C384.997589,267.304810 384.628418,271.110535 384.249847,274.915131 
	C384.184387,275.572449 384.240906,276.532104 383.848480,276.823608 
	C376.803009,282.057587 379.402893,289.980255 378.690430,296.715637 
	C377.589874,307.120148 377.790985,317.658997 377.321289,328.135559 
	C377.173676,331.428436 378.223938,333.545135 381.594238,334.393555 
	C385.600159,335.401947 387.506653,337.832886 386.462677,342.146027 
	C386.194336,343.254669 386.207611,344.490143 386.358887,345.631989 
	C387.242645,352.303192 383.983856,355.434906 378.149200,358.551697 
	C371.438354,362.136627 365.948181,363.197174 359.689178,358.553345 
	C357.400696,356.855408 354.856262,358.252106 352.506683,358.990356 
	C331.028595,365.739044 310.480316,374.925323 289.498260,382.977417 
	C249.548538,398.308563 209.477539,413.324310 169.422394,428.379242 
	C165.306274,429.926331 162.247696,431.743652 162.920380,436.868469 
	C163.184540,438.881042 161.883621,440.300385 160.002991,441.071838 
	C159.232681,441.387817 158.452911,441.680878 157.676102,441.980865 
	C135.251465,450.640991 140.200043,449.382324 122.476410,439.897003 
	C85.903603,420.323975 49.659733,400.143066 13.696501,379.461884 
	C10.034366,377.355896 8.610904,374.814667 8.763378,370.620514 
	C9.150076,359.983551 9.871417,359.348297 19.546404,355.515991 
	C25.919657,352.991516 31.266340,353.500000 37.521931,356.222717 
	C64.467842,367.950897 89.948753,382.454071 115.685402,396.486237 
	C126.617958,402.446869 126.754776,402.463684 126.613808,390.045135 
	C126.507729,380.701111 127.191994,371.404022 127.717598,362.094238 
	C127.856125,359.640594 127.602097,357.563629 125.194054,356.087280 
	C122.963066,354.719452 122.695465,352.321411 122.808311,349.882690 
	C124.734070,308.262329 124.545692,266.604492 125.095558,224.958618 
	C125.324142,207.645889 126.200798,190.342606 126.618690,173.031082 
	C126.778801,166.398071 125.435249,165.050934 119.396263,167.351410 
	C107.641090,171.829346 99.773605,164.528961 91.178368,159.114380 
	C89.571678,158.102264 89.699188,156.259735 89.666077,154.580551 
	C89.238693,132.911880 90.387573,111.316872 92.410202,89.746063 
	C93.170792,81.634621 93.572937,73.468155 93.650764,65.322121 
	C93.697708,60.408619 95.210159,57.795586 100.328011,56.621376 
	C125.449760,50.857586 150.670532,45.637138 176.135132,41.631702 
	C204.854538,37.114304 233.576630,32.613808 262.302948,28.140673 
	C273.462891,26.402893 284.637543,24.759958 296.232330,22.968204 
M258.604218,371.936188 
	C275.894653,365.893616 293.182739,359.844391 310.477234,353.813477 
	C314.406494,352.443298 318.361542,351.147217 322.296967,349.794434 
	C323.567627,349.357666 324.963989,348.889587 324.985229,347.249695 
	C325.006042,345.641693 323.606262,345.096405 322.422394,344.505554 
	C321.530579,344.060455 320.589722,343.709198 319.657928,343.349274 
	C296.199982,334.288452 272.748749,325.210266 249.277130,316.185089 
	C239.442139,312.403381 239.422226,312.455292 239.698776,301.754272 
	C239.711700,301.254456 239.729477,300.754608 239.731552,300.254730 
	C239.743912,297.270020 240.964172,295.584137 244.223297,295.619324 
	C246.804092,295.647186 249.154617,294.612762 251.037811,292.895874 
	C252.947037,291.155243 254.915573,291.373810 257.076965,292.069672 
	C279.095947,299.158691 301.138977,306.173676 323.132324,313.341278 
	C333.577026,316.745148 343.927887,320.436829 354.323914,323.990417 
	C357.259094,324.993713 360.440765,325.603271 360.518280,321.209869 
	C360.736053,308.867950 362.752136,296.704529 363.728760,284.442596 
	C363.846924,282.959259 364.141846,281.237549 362.726257,280.268707 
	C360.172791,278.521057 360.403442,276.063995 360.649658,273.555389 
	C361.640045,263.464752 362.725250,253.382874 363.641541,243.285614 
	C365.158630,226.567627 366.605164,209.843018 368.019653,193.115982 
	C369.280304,178.208496 370.467072,163.294724 371.667908,148.382217 
	C372.548462,137.446732 373.133698,126.479172 374.351868,115.581940 
	C375.235779,107.674622 373.911652,106.120377 366.208771,107.941261 
	C329.951782,116.512085 293.679138,125.017174 257.441101,133.667496 
	C231.882019,139.768661 206.365494,146.048645 180.843323,152.303299 
	C178.696747,152.829346 175.876419,152.722809 175.350113,155.727921 
	C174.860382,158.524231 172.780075,159.413025 170.603241,160.319778 
	C166.914230,161.856415 163.298096,163.619675 159.509521,164.851562 
	C155.383636,166.193115 153.937881,168.964767 154.615387,172.877884 
	C155.420013,177.524994 155.409302,182.188065 155.251602,186.835800 
	C154.342422,213.629242 153.207428,240.415268 152.363953,267.210602 
	C151.771637,286.027191 151.644028,304.858337 151.065811,323.675507 
	C150.789917,332.653717 149.924530,341.613068 149.382294,350.584351 
	C149.267792,352.478760 149.209442,354.377838 147.147324,355.190369 
	C144.148773,356.371857 144.175156,358.821075 144.241074,361.398224 
	C144.624466,376.387512 145.075760,391.376068 145.293564,406.367950 
	C145.362274,411.097778 147.717026,410.655548 150.782562,409.431427 
	C185.915588,395.402222 222.236450,384.792206 258.604218,371.936188 
M240.809509,86.082169 
	C239.660675,99.322952 238.403168,112.555656 237.416824,125.808533 
	C237.025009,131.073181 238.393890,132.022568 243.578796,130.790634 
	C274.128723,123.531876 304.649994,116.150116 335.239227,109.061447 
	C339.926666,107.975189 341.417175,105.506432 341.690308,101.139946 
	C342.903992,81.737915 344.330475,62.349159 345.535065,42.946606 
	C345.777802,39.036915 346.221161,35.043991 345.057312,30.663956 
	C337.879089,31.909985 330.873260,33.105671 323.875092,34.344543 
	C299.024445,38.743805 274.185638,43.211037 249.318268,47.513420 
	C245.205872,48.224918 243.427567,49.954948 243.234711,54.346497 
	C242.782974,64.634270 241.765198,74.897179 240.809509,86.082169 
M95.368843,148.951508 
	C99.214233,160.086731 114.660721,165.785675 126.146683,159.968048 
	C129.084869,158.479843 131.809540,157.740891 135.064026,157.597763 
	C142.609818,157.265945 144.296463,155.599915 145.006577,148.275757 
	C145.712219,140.997864 146.378540,133.698761 146.574661,126.395851 
	C146.679825,122.479729 148.289124,120.550362 151.887466,119.836571 
	C157.592957,118.704811 163.282288,117.484093 169.005829,116.452995 
	C174.344620,115.491219 175.355423,116.456085 176.377548,121.604134 
	C177.666107,128.094055 177.163132,134.503891 176.400986,140.973877 
	C176.183685,142.818604 175.577805,145.190811 177.971405,146.287735 
	C181.827133,148.054703 190.507233,142.884521 190.737488,138.753067 
	C192.042542,115.336395 193.375793,91.921112 194.582947,68.499359 
	C194.759521,65.073799 195.159714,61.557243 194.134552,58.253349 
	C192.252960,57.457649 190.589249,58.110767 189.022522,58.404243 
	C166.970673,62.534882 144.955200,66.862167 122.884888,70.889656 
	C117.879219,71.803116 116.359734,74.568634 116.250343,79.162338 
	C115.663704,103.797073 114.986824,128.429703 114.305222,153.062057 
	C114.257782,154.776566 114.876244,156.864044 112.477005,157.726303 
	C110.039444,156.879639 110.718445,154.785233 110.682327,153.077225 
	C110.241928,132.253204 111.151672,111.450813 111.830009,90.647362 
	C112.008453,85.174759 112.907127,79.728485 113.185532,74.255394 
	C113.398979,70.059402 115.413254,68.363892 119.456879,67.451904 
	C138.591705,63.136269 157.803329,59.225716 177.067703,55.542339 
	C180.976624,54.794945 185.231110,54.923714 189.697556,51.879143 
	C184.106720,50.060856 180.089966,47.167240 174.387466,48.160721 
	C150.971786,52.240150 127.636108,56.714420 104.343704,61.431957 
	C101.395851,62.028999 99.736214,63.588680 99.222794,66.680573 
	C97.827469,75.083366 97.412132,83.548431 97.352371,92.036064 
	C97.285622,101.516693 97.106964,110.927994 95.618355,120.377319 
	C94.178688,129.516052 92.992371,138.861893 95.368843,148.951508 
M413.482941,84.749313 
	C413.525146,86.853310 412.683380,89.030975 413.922913,91.025223 
	C422.250336,91.324974 425.823120,88.972336 426.847595,82.239647 
	C427.845306,75.682816 428.631409,69.093025 429.459808,62.511341 
	C431.261688,48.195377 432.001526,33.757706 434.507050,19.515932 
	C434.976227,16.848970 434.772736,14.096849 430.313568,14.990110 
	C418.595490,17.337490 406.816559,19.386986 395.044067,21.453848 
	C391.215729,22.125980 389.490387,23.952440 389.236145,28.062981 
	C388.703766,36.671478 387.546936,45.239906 386.725250,53.832314 
	C385.492584,66.722206 384.300262,79.616173 383.169983,92.515343 
	C383.036163,94.042839 382.537567,96.306999 384.981445,96.404198 
	C387.079315,96.487648 386.773987,94.335480 386.936157,92.965118 
	C387.618835,87.196083 388.352234,81.424896 388.740234,75.632607 
	C388.934570,72.731728 389.897400,70.880989 392.807007,70.251396 
	C398.159607,69.093178 403.487335,67.801460 408.870575,66.810463 
	C412.326385,66.174286 414.325165,67.806381 414.289551,71.453903 
	C414.249054,75.601128 414.729919,79.778885 413.482941,84.749313 
M272.806885,39.071712 
	C293.997437,35.342045 315.187988,31.612381 336.378510,27.882717 
	C336.343292,27.303881 336.308075,26.725046 336.272858,26.146210 
	C334.007599,24.646324 331.825806,23.475822 328.652496,23.969360 
	C303.217163,27.925266 277.736145,31.591557 252.320816,35.668804 
	C246.959213,36.528938 241.066650,35.995609 235.833282,39.966118 
	C240.198685,41.908756 243.736053,44.324913 248.431946,43.422367 
	C256.253479,41.919075 264.124054,40.671223 272.806885,39.071712 
M159.714218,124.100708 
	C157.896439,124.732002 155.716354,124.575577 154.316772,126.609787 
	C157.759888,129.483673 157.506836,133.322449 156.999374,137.165726 
	C156.238266,142.930237 155.265213,148.668488 154.596130,154.442673 
	C154.284515,157.131958 154.359406,160.104767 158.005661,160.562531 
	C162.010376,161.065308 168.930145,155.435532 169.776382,151.344254 
	C171.102707,144.932098 170.845123,138.419739 170.988541,131.943481 
	C171.224777,121.274605 170.897125,121.089630 159.714218,124.100708 
M137.107239,384.017334 
	C131.980301,394.585114 133.821014,405.476135 134.404236,417.246002 
	C138.872955,413.969971 140.358749,393.056335 138.055618,381.824280 
	C137.239441,382.047760 137.357803,382.788879 137.107239,384.017334 
M388.112244,15.474630 
	C385.573120,15.835423 383.292694,17.363258 380.627045,17.392021 
	C394.957977,20.329882 408.208557,14.542321 421.911102,12.453529 
	C410.725555,11.570050 399.893372,14.134940 388.112244,15.474630 
M400.135284,78.550896 
	C396.762360,82.891129 399.598846,87.484215 399.701721,91.946991 
	C399.727783,93.077484 401.773987,94.087517 402.371674,93.190491 
	C403.931946,90.848839 407.473297,89.253677 406.759277,86.048691 
	C406.037018,82.806580 406.000732,78.380501 400.135284,78.550896 
z"/>
</svg>