<svg version="1.1" id="Layer_1" xmlns="http://www.w3.org/2000/svg" xmlns:xlink="http://www.w3.org/1999/xlink" x="0px" y="0px"
	 width="100%" viewBox="0 0 208 224" enable-background="new 0 0 208 224" xml:space="preserve">
<path fill="#000000" opacity="1.000000" stroke="none" 
	d="
M139.280487,163.672180 
	C138.972641,161.762787 138.724808,160.284363 138.567886,158.796371 
	C138.220215,155.499695 136.824005,153.449112 133.263062,152.603806 
	C125.332863,150.721313 117.463486,148.549759 109.652237,146.218201 
	C107.179436,145.480103 105.569977,146.272354 103.750763,147.600983 
	C94.337547,154.475723 84.785233,161.164230 75.484612,168.186783 
	C71.758873,170.999969 68.439278,171.665237 64.030724,169.670395 
	C50.380672,163.493881 36.563099,157.688004 22.820543,151.715271 
	C18.197248,149.705917 16.520979,146.202209 17.961039,141.741928 
	C19.035362,138.414429 23.322155,136.060028 27.422037,137.151459 
	C34.496326,139.034683 41.678608,140.792435 48.426567,143.553543 
	C57.799999,147.388931 65.942650,147.259369 73.212166,139.397980 
	C74.982841,137.483170 77.409142,136.113220 79.681129,134.735397 
	C85.544968,131.179291 86.932114,125.514572 86.745224,119.354370 
	C86.592873,114.332626 88.923119,110.431244 91.253754,106.377136 
	C98.140572,94.397667 104.972710,82.386620 111.779572,70.361504 
	C112.833961,68.498802 113.988617,66.632721 114.222649,63.885921 
	C107.388336,62.834957 100.547638,62.106258 93.620483,62.338589 
	C91.796814,62.399757 90.738983,63.863201 89.531708,64.993744 
	C81.024132,72.960609 72.524857,80.936371 64.002853,88.887779 
	C59.977249,92.643852 56.181419,93.041237 52.988106,90.114624 
	C50.049999,87.421898 49.916008,82.504662 53.147869,78.885796 
	C63.131062,67.707130 73.278702,56.675438 83.339149,45.565552 
	C84.906792,43.834389 86.741035,43.038162 89.091492,43.216251 
	C99.705383,44.020458 110.321999,44.789669 120.939949,45.538734 
	C123.254860,45.702045 125.592712,45.975651 127.772507,44.737785 
	C133.262054,41.620384 138.498520,42.893642 143.264160,46.194912 
	C149.008194,50.173931 154.633804,54.359043 160.024368,58.802273 
	C164.503769,62.494457 166.158463,67.420204 165.986359,73.411827 
	C165.728195,82.398796 168.158203,91.154900 169.547714,99.992249 
	C169.839020,101.844986 171.765549,102.340096 173.277710,102.996704 
	C180.760788,106.245987 188.255890,109.467606 195.747238,112.697784 
	C197.123352,113.291138 198.511169,113.858208 199.877350,114.473473 
	C203.616638,116.157471 206.059540,118.871788 204.736526,123.102264 
	C203.352814,127.526863 199.642059,127.939972 195.727890,126.891716 
	C186.083771,124.308891 176.600266,120.801147 166.801361,119.207436 
	C155.660782,117.395508 150.624512,111.672028 150.770065,100.723572 
	C150.782730,99.771111 150.725006,98.680923 148.882797,97.736244 
	C142.726639,105.864365 136.483505,114.107315 129.991913,122.678329 
	C134.708054,125.819313 139.540359,126.376694 144.091263,127.626564 
	C160.092606,132.021179 158.562546,129.662613 160.453278,145.892029 
	C162.723465,165.378647 165.009949,184.863495 167.209610,204.358109 
	C167.949066,210.911591 164.311737,215.496552 158.061081,216.247330 
	C151.330734,217.055710 146.973709,214.081894 145.936691,207.523438 
	C143.650497,193.064575 141.555038,178.575531 139.280487,163.672180 
z"/>
<path fill="#000000" opacity="1.000000" stroke="none" 
	d="
M189.544708,21.842150 
	C195.435181,39.395855 182.917801,55.193111 166.187515,51.891541 
	C156.262207,49.932877 149.117371,41.575970 148.761063,31.508852 
	C148.409470,21.574730 154.949203,12.538264 164.230789,10.133151 
	C174.642578,7.435174 184.116013,11.709700 189.544708,21.842150 
z"/>
</svg>