<svg version="1.1" id="Layer_1" xmlns="http://www.w3.org/2000/svg" xmlns:xlink="http://www.w3.org/1999/xlink" x="0px" y="0px"
	 width="100%" viewBox="0 0 236 228" enable-background="new 0 0 236 228" xml:space="preserve">
<path fill="#FEFEFE" opacity="1.000000" stroke="none" 
	d="
M133.000000,229.000000 
	C88.666672,229.000000 44.833340,229.000000 1.000006,229.000000 
	C1.000004,153.000000 1.000004,77.000015 1.000002,1.000016 
	C79.666656,1.000011 158.333313,1.000011 236.999969,1.000005 
	C236.999985,76.999985 236.999985,152.999969 237.000000,228.999969 
	C202.500000,229.000000 168.000000,229.000000 133.000000,229.000000 
M157.471222,185.937241 
	C164.144089,178.658463 164.168610,176.313019 157.604996,169.216858 
	C155.908020,167.382217 154.158249,165.596527 152.446732,163.775192 
	C146.106598,157.028214 139.772308,150.275726 133.386765,143.473053 
	C142.544739,130.675781 151.405930,118.293221 160.457291,105.644928 
	C161.502823,107.028061 162.250595,107.916595 162.888702,108.877937 
	C166.757614,114.706604 170.518250,120.609055 174.477798,126.375114 
	C178.252899,131.872589 181.201706,132.397400 186.421555,128.706223 
	C196.350464,121.685097 206.246719,114.617828 216.160080,107.574707 
	C219.725571,105.041527 220.670441,101.841377 218.269958,98.085976 
	C215.821121,94.254951 212.705963,94.080238 208.864243,96.385567 
	C201.487030,100.812469 193.940231,104.956757 186.258102,109.335495 
	C183.044327,104.562820 180.376251,99.917046 177.033875,95.821571 
	C173.404373,91.374260 172.482056,86.509026 172.985428,81.082474 
	C173.029572,80.606697 172.918304,80.041443 172.685791,79.626015 
	C166.349884,68.306313 156.355255,61.176567 144.932251,55.847530 
	C141.282684,54.144943 137.034103,53.683578 133.464706,51.860924 
	C126.056488,48.078045 119.034187,43.534977 111.599022,39.812111 
	C109.449173,38.735661 106.099159,38.524479 103.870293,39.388847 
	C90.525436,44.564075 77.344330,50.162045 64.114929,55.634228 
	C59.436184,57.569534 57.541862,60.742603 58.856083,64.340721 
	C60.285210,68.253426 64.030373,69.700706 68.683327,68.038124 
	C79.500015,64.173096 90.286308,60.222187 101.126198,56.423901 
	C102.584564,55.912888 104.708748,55.382301 105.799026,56.048409 
	C113.557602,60.788548 121.127480,65.837555 128.298447,70.490440 
	C117.943970,91.513618 107.896202,111.923050 97.823097,132.319962 
	C97.539612,132.893982 97.023247,133.373032 96.552437,133.831650 
	C78.921082,151.006165 63.340240,170.329865 42.850857,184.513458 
	C35.599915,189.532867 28.739971,195.129517 21.830021,200.624237 
	C17.986834,203.680298 17.344267,207.766159 19.883039,211.169022 
	C22.608290,214.821808 26.130745,214.731476 29.645870,212.663605 
	C52.119812,199.442688 75.673210,187.792770 93.090256,167.378159 
	C98.320953,161.247223 104.611137,156.020233 110.604523,150.195892 
	C119.732597,159.858017 128.506760,169.145523 137.408463,178.568008 
	C129.347260,188.140060 121.501289,197.414429 113.705856,206.731064 
	C109.930672,211.242950 109.919121,214.573486 113.509033,218.088287 
	C116.681465,221.194382 119.780014,220.806305 124.291977,216.643768 
	C135.192398,206.587555 146.071243,196.507965 157.471222,185.937241 
M191.171555,28.189528 
	C185.388428,24.388569 179.112289,23.788311 172.623184,25.695251 
	C163.969879,28.238188 158.021744,36.415989 157.920395,45.519287 
	C157.816483,54.849823 163.765411,63.211163 172.493820,66.002594 
	C182.381561,69.164787 192.629807,65.198044 197.794479,56.209591 
	C203.059296,47.046852 200.714584,36.325203 191.171555,28.189528 
z"/>
<path fill="#141313" opacity="1.000000" stroke="none" 
	d="
M157.214996,186.187531 
	C146.071243,196.507965 135.192398,206.587555 124.291977,216.643768 
	C119.780014,220.806305 116.681465,221.194382 113.509033,218.088287 
	C109.919121,214.573486 109.930672,211.242950 113.705856,206.731064 
	C121.501289,197.414429 129.347260,188.140060 137.408463,178.568008 
	C128.506760,169.145523 119.732597,159.858017 110.604523,150.195892 
	C104.611137,156.020233 98.320953,161.247223 93.090256,167.378159 
	C75.673210,187.792770 52.119812,199.442688 29.645870,212.663605 
	C26.130745,214.731476 22.608290,214.821808 19.883039,211.169022 
	C17.344267,207.766159 17.986834,203.680298 21.830021,200.624237 
	C28.739971,195.129517 35.599915,189.532867 42.850857,184.513458 
	C63.340240,170.329865 78.921082,151.006165 96.552437,133.831650 
	C97.023247,133.373032 97.539612,132.893982 97.823097,132.319962 
	C107.896202,111.923050 117.943970,91.513618 128.298447,70.490440 
	C121.127480,65.837555 113.557602,60.788548 105.799026,56.048409 
	C104.708748,55.382301 102.584564,55.912888 101.126198,56.423901 
	C90.286308,60.222187 79.500015,64.173096 68.683327,68.038124 
	C64.030373,69.700706 60.285210,68.253426 58.856083,64.340721 
	C57.541862,60.742603 59.436184,57.569534 64.114929,55.634228 
	C77.344330,50.162045 90.525436,44.564075 103.870293,39.388847 
	C106.099159,38.524479 109.449173,38.735661 111.599022,39.812111 
	C119.034187,43.534977 126.056488,48.078045 133.464706,51.860924 
	C137.034103,53.683578 141.282684,54.144943 144.932251,55.847530 
	C156.355255,61.176567 166.349884,68.306313 172.685791,79.626015 
	C172.918304,80.041443 173.029572,80.606697 172.985428,81.082474 
	C172.482056,86.509026 173.404373,91.374260 177.033875,95.821571 
	C180.376251,99.917046 183.044327,104.562820 186.258102,109.335495 
	C193.940231,104.956757 201.487030,100.812469 208.864243,96.385567 
	C212.705963,94.080238 215.821121,94.254951 218.269958,98.085976 
	C220.670441,101.841377 219.725571,105.041527 216.160080,107.574707 
	C206.246719,114.617828 196.350464,121.685097 186.421555,128.706223 
	C181.201706,132.397400 178.252899,131.872589 174.477798,126.375114 
	C170.518250,120.609055 166.757614,114.706604 162.888702,108.877937 
	C162.250595,107.916595 161.502823,107.028061 160.457291,105.644928 
	C151.405930,118.293221 142.544739,130.675781 133.386765,143.473053 
	C139.772308,150.275726 146.106598,157.028214 152.446732,163.775192 
	C154.158249,165.596527 155.908020,167.382217 157.604996,169.216858 
	C164.168610,176.313019 164.144089,178.658463 157.214996,186.187531 
z"/>
<path fill="#151314" opacity="1.000000" stroke="none" 
	d="
M191.466492,28.405945 
	C200.714584,36.325203 203.059296,47.046852 197.794479,56.209591 
	C192.629807,65.198044 182.381561,69.164787 172.493820,66.002594 
	C163.765411,63.211163 157.816483,54.849823 157.920395,45.519287 
	C158.021744,36.415989 163.969879,28.238188 172.623184,25.695251 
	C179.112289,23.788311 185.388428,24.388569 191.466492,28.405945 
z"/>
</svg>